<svg xmlns="http://www.w3.org/2000/svg" width="1024" height="1024" viewBox="0 0 1024 1024">
  <rect x="42" y="42" width="940" height="940" rx="218" fill="#e8e2d6"/>
  <circle cx="512" cy="512" r="323" fill="#171716"/>
  <g fill="none" stroke="#6e6a62" opacity="0.56">
    <circle cx="512" cy="512" r="290" stroke-width="4"/>
    <circle cx="512" cy="512" r="266" stroke-width="2"/>
    <circle cx="512" cy="512" r="240" stroke-width="4"/>
    <circle cx="512" cy="512" r="214" stroke-width="2"/>
    <circle cx="512" cy="512" r="188" stroke-width="4"/>
  </g>
  <path d="M330 251A323 323 0 0 1 636 214L525 459A58 58 0 0 0 467 467Z" fill="#fff" opacity="0.10"/>
  <path d="M700 752A323 323 0 0 1 392 805L497 563A58 58 0 0 0 558 555Z" fill="#fff" opacity="0.055"/>
  <circle cx="512" cy="512" r="113" fill="#b04f3f"/>
  <circle cx="512" cy="512" r="38" fill="#e8e2d6"/>
  <circle cx="512" cy="512" r="11" fill="#171716"/>
</svg>
